<svg width="416" height="85" viewBox="0 0 416 85" fill="none" xmlns="http://www.w3.org/2000/svg">
<path d="M9.64 30V2.16H15.92V30H9.64ZM0.8 7.24V1.76H24.76V7.24H0.8ZM40.5469 30V18.92C40.5469 17.9067 40.2269 17.0933 39.5869 16.48C38.9735 15.84 38.1869 15.52 37.2269 15.52C36.5602 15.52 35.9735 15.6667 35.4669 15.96C34.9602 16.2267 34.5602 16.6267 34.2669 17.16C33.9735 17.6667 33.8269 18.2533 33.8269 18.92L31.4669 17.76C31.4669 16.24 31.7869 14.9067 32.4269 13.76C33.0669 12.6133 33.9602 11.7333 35.1069 11.12C36.2535 10.48 37.5735 10.16 39.0669 10.16C40.5869 10.16 41.9202 10.48 43.0669 11.12C44.2135 11.7333 45.0935 12.6 45.7069 13.72C46.3469 14.8133 46.6669 16.0933 46.6669 17.56V30H40.5469ZM27.7069 30V0.96H33.8269V30H27.7069ZM60.1975 30.44C58.0908 30.44 56.2108 30.0133 54.5575 29.16C52.9308 28.28 51.6508 27.0667 50.7175 25.52C49.7842 23.9733 49.3175 22.2267 49.3175 20.28C49.3175 18.3333 49.7708 16.6 50.6775 15.08C51.6108 13.5333 52.8642 12.32 54.4375 11.44C56.0108 10.56 57.7842 10.12 59.7575 10.12C61.6775 10.12 63.3708 10.5333 64.8375 11.36C66.3042 12.1867 67.4508 13.3333 68.2775 14.8C69.1308 16.2667 69.5575 17.9467 69.5575 19.84C69.5575 20.1867 69.5308 20.56 69.4775 20.96C69.4508 21.3333 69.3842 21.7733 69.2775 22.28L52.5175 22.32V18.12L66.6775 18.08L64.0375 19.84C64.0108 18.72 63.8375 17.8 63.5175 17.08C63.1975 16.3333 62.7175 15.7733 62.0775 15.4C61.4642 15 60.7042 14.8 59.7975 14.8C58.8375 14.8 57.9975 15.0267 57.2775 15.48C56.5842 15.9067 56.0375 16.52 55.6375 17.32C55.2642 18.12 55.0775 19.0933 55.0775 20.24C55.0775 21.3867 55.2775 22.3733 55.6775 23.2C56.1042 24 56.6908 24.6267 57.4375 25.08C58.2108 25.5067 59.1175 25.72 60.1575 25.72C61.1175 25.72 61.9842 25.56 62.7575 25.24C63.5308 24.8933 64.2108 24.3867 64.7975 23.72L68.1575 27.08C67.1975 28.2 66.0375 29.04 64.6775 29.6C63.3175 30.16 61.8242 30.44 60.1975 30.44ZM85.4888 19.72V14.84H91.5688C92.3421 14.84 93.0488 14.68 93.6888 14.36C94.3288 14.04 94.8354 13.5733 95.2088 12.96C95.5821 12.3467 95.7688 11.6 95.7688 10.72C95.7688 9.86667 95.5821 9.13333 95.2088 8.52C94.8354 7.90667 94.3288 7.44 93.6888 7.12C93.0488 6.8 92.3421 6.64 91.5688 6.64H85.4888V1.76H92.4888C94.2754 1.76 95.8888 2.12 97.3288 2.84C98.7688 3.56 99.9021 4.6 100.729 5.96C101.582 7.29333 102.009 8.88 102.009 10.72C102.009 12.56 101.582 14.16 100.729 15.52C99.9021 16.8533 98.7688 17.8933 97.3288 18.64C95.8888 19.36 94.2754 19.72 92.4888 19.72H85.4888ZM80.6888 30V1.76H86.9688V30H80.6888ZM105.246 30V10.56H111.366V30H105.246ZM111.366 19.32L108.806 17.32C109.313 15.0533 110.166 13.2933 111.366 12.04C112.566 10.7867 114.233 10.16 116.366 10.16C117.299 10.16 118.113 10.3067 118.806 10.6C119.526 10.8667 120.153 11.2933 120.686 11.88L117.046 16.48C116.779 16.1867 116.446 15.96 116.046 15.8C115.646 15.64 115.193 15.56 114.686 15.56C113.673 15.56 112.859 15.88 112.246 16.52C111.659 17.1333 111.366 18.0667 111.366 19.32ZM122.316 30V10.56H128.436V30H122.316ZM125.396 7.88C124.436 7.88 123.636 7.56 122.996 6.92C122.383 6.25333 122.076 5.45333 122.076 4.52C122.076 3.56 122.383 2.76 122.996 2.12C123.636 1.48 124.436 1.16 125.396 1.16C126.356 1.16 127.143 1.48 127.756 2.12C128.37 2.76 128.676 3.56 128.676 4.52C128.676 5.45333 128.37 6.25333 127.756 6.92C127.143 7.56 126.356 7.88 125.396 7.88ZM142.146 30.44C140.146 30.44 138.333 30 136.706 29.12C135.079 28.24 133.799 27.0267 132.866 25.48C131.933 23.9333 131.466 22.2 131.466 20.28C131.466 18.3333 131.933 16.6 132.866 15.08C133.826 13.5333 135.119 12.32 136.746 11.44C138.373 10.56 140.199 10.12 142.226 10.12C143.746 10.12 145.133 10.3867 146.386 10.92C147.666 11.4267 148.799 12.2 149.786 13.24L145.866 17.16C145.413 16.6533 144.879 16.28 144.266 16.04C143.679 15.8 142.999 15.68 142.226 15.68C141.346 15.68 140.559 15.88 139.866 16.28C139.199 16.6533 138.666 17.1867 138.266 17.88C137.893 18.5467 137.706 19.3333 137.706 20.24C137.706 21.1467 137.893 21.9467 138.266 22.64C138.666 23.3333 139.213 23.88 139.906 24.28C140.599 24.68 141.373 24.88 142.226 24.88C143.026 24.88 143.733 24.7467 144.346 24.48C144.986 24.1867 145.533 23.7867 145.986 23.28L149.866 27.2C148.853 28.2667 147.706 29.08 146.426 29.64C145.146 30.1733 143.719 30.44 142.146 30.44ZM161.721 30.44C159.614 30.44 157.734 30.0133 156.081 29.16C154.454 28.28 153.174 27.0667 152.241 25.52C151.308 23.9733 150.841 22.2267 150.841 20.28C150.841 18.3333 151.294 16.6 152.201 15.08C153.134 13.5333 154.388 12.32 155.961 11.44C157.534 10.56 159.308 10.12 161.281 10.12C163.201 10.12 164.894 10.5333 166.361 11.36C167.828 12.1867 168.974 13.3333 169.801 14.8C170.654 16.2667 171.081 17.9467 171.081 19.84C171.081 20.1867 171.054 20.56 171.001 20.96C170.974 21.3333 170.908 21.7733 170.801 22.28L154.041 22.32V18.12L168.201 18.08L165.561 19.84C165.534 18.72 165.361 17.8 165.041 17.08C164.721 16.3333 164.241 15.7733 163.601 15.4C162.988 15 162.228 14.8 161.321 14.8C160.361 14.8 159.521 15.0267 158.801 15.48C158.108 15.9067 157.561 16.52 157.161 17.32C156.788 18.12 156.601 19.0933 156.601 20.24C156.601 21.3867 156.801 22.3733 157.201 23.2C157.628 24 158.214 24.6267 158.961 25.08C159.734 25.5067 160.641 25.72 161.681 25.72C162.641 25.72 163.508 25.56 164.281 25.24C165.054 24.8933 165.734 24.3867 166.321 23.72L169.681 27.08C168.721 28.2 167.561 29.04 166.201 29.6C164.841 30.16 163.348 30.44 161.721 30.44ZM195.692 30.48C193.559 30.48 191.586 30.1067 189.772 29.36C187.986 28.6133 186.412 27.5733 185.052 26.24C183.692 24.9067 182.639 23.36 181.892 21.6C181.146 19.8133 180.772 17.8933 180.772 15.84C180.772 13.76 181.146 11.84 181.892 10.08C182.639 8.32 183.679 6.78667 185.012 5.48C186.346 4.14666 187.906 3.12 189.692 2.4C191.506 1.65333 193.479 1.28 195.612 1.28C197.719 1.28 199.666 1.65333 201.452 2.4C203.266 3.12 204.839 4.14666 206.172 5.48C207.532 6.78667 208.586 8.33333 209.332 10.12C210.079 11.88 210.452 13.8 210.452 15.88C210.452 17.9333 210.079 19.8533 209.332 21.64C208.586 23.4 207.546 24.9467 206.212 26.28C204.879 27.5867 203.306 28.6133 201.492 29.36C199.706 30.1067 197.772 30.48 195.692 30.48ZM195.612 24.76C197.292 24.76 198.759 24.3867 200.012 23.64C201.292 22.8933 202.279 21.8533 202.972 20.52C203.666 19.16 204.012 17.6 204.012 15.84C204.012 14.5067 203.812 13.3067 203.412 12.24C203.012 11.1467 202.439 10.2133 201.692 9.44C200.946 8.64 200.052 8.04 199.012 7.64C197.999 7.21333 196.866 7 195.612 7C193.932 7 192.452 7.37333 191.172 8.12C189.919 8.84 188.946 9.86667 188.252 11.2C187.559 12.5067 187.212 14.0533 187.212 15.84C187.212 17.1733 187.412 18.3867 187.812 19.48C188.212 20.5733 188.772 21.52 189.492 22.32C190.239 23.0933 191.132 23.6933 192.172 24.12C193.212 24.5467 194.359 24.76 195.612 24.76ZM216.359 30V8.88C216.359 7.30667 216.705 5.89333 217.399 4.64C218.119 3.36 219.119 2.36 220.399 1.64C221.679 0.893331 223.199 0.519998 224.959 0.519998C226.292 0.519998 227.452 0.746665 228.439 1.2C229.452 1.62666 230.332 2.22667 231.079 3L227.239 6.84C226.972 6.57333 226.665 6.37333 226.319 6.24C225.999 6.08 225.612 6 225.159 6C224.332 6 223.679 6.24 223.199 6.72C222.719 7.2 222.479 7.85333 222.479 8.68V30H216.359ZM212.079 15.76V10.56H228.079V15.76H212.079ZM9.64 80V52.16H15.92V80H9.64ZM0.8 57.24V51.76H24.76V57.24H0.8ZM40.5469 80V68.92C40.5469 67.9067 40.2269 67.0933 39.5869 66.48C38.9735 65.84 38.1869 65.52 37.2269 65.52C36.5602 65.52 35.9735 65.6667 35.4669 65.96C34.9602 66.2267 34.5602 66.6267 34.2669 67.16C33.9735 67.6667 33.8269 68.2533 33.8269 68.92L31.4669 67.76C31.4669 66.24 31.7869 64.9067 32.4269 63.76C33.0669 62.6133 33.9602 61.7333 35.1069 61.12C36.2535 60.48 37.5735 60.16 39.0669 60.16C40.5869 60.16 41.9202 60.48 43.0669 61.12C44.2135 61.7333 45.0935 62.6 45.7069 63.72C46.3469 64.8133 46.6669 66.0933 46.6669 67.56V80H40.5469ZM27.7069 80V50.96H33.8269V80H27.7069ZM50.5975 80V60.56H56.7175V80H50.5975ZM53.6775 57.88C52.7175 57.88 51.9175 57.56 51.2775 56.92C50.6642 56.2533 50.3575 55.4533 50.3575 54.52C50.3575 53.56 50.6642 52.76 51.2775 52.12C51.9175 51.48 52.7175 51.16 53.6775 51.16C54.6375 51.16 55.4242 51.48 56.0375 52.12C56.6508 52.76 56.9575 53.56 56.9575 54.52C56.9575 55.4533 56.6508 56.2533 56.0375 56.92C55.4242 57.56 54.6375 57.88 53.6775 57.88ZM68.1072 80.48C66.9605 80.48 65.8272 80.3333 64.7072 80.04C63.6139 79.7467 62.5872 79.3333 61.6272 78.8C60.6939 78.24 59.8939 77.6 59.2272 76.88L62.7072 73.36C63.3472 74.0533 64.1072 74.6 64.9872 75C65.8672 75.3733 66.8272 75.56 67.8672 75.56C68.5872 75.56 69.1339 75.4533 69.5072 75.24C69.9072 75.0267 70.1072 74.7333 70.1072 74.36C70.1072 73.88 69.8672 73.52 69.3872 73.28C68.9339 73.0133 68.3472 72.7867 67.6272 72.6C66.9072 72.3867 66.1472 72.16 65.3472 71.92C64.5472 71.68 63.7872 71.3467 63.0672 70.92C62.3472 70.4933 61.7605 69.9067 61.3072 69.16C60.8539 68.3867 60.6272 67.4133 60.6272 66.24C60.6272 64.9867 60.9472 63.9067 61.5872 63C62.2272 62.0667 63.1339 61.3333 64.3072 60.8C65.4805 60.2667 66.8539 60 68.4272 60C70.0805 60 71.6005 60.2933 72.9872 60.88C74.4005 61.44 75.5472 62.28 76.4272 63.4L72.9472 66.92C72.3339 66.2 71.6405 65.6933 70.8672 65.4C70.1205 65.1067 69.3872 64.96 68.6672 64.96C67.9739 64.96 67.4539 65.0667 67.1072 65.28C66.7605 65.4667 66.5872 65.7467 66.5872 66.12C66.5872 66.52 66.8139 66.84 67.2672 67.08C67.7205 67.32 68.3072 67.5333 69.0272 67.72C69.7472 67.9067 70.5072 68.1333 71.3072 68.4C72.1072 68.6667 72.8672 69.0267 73.5872 69.48C74.3072 69.9333 74.8939 70.5467 75.3472 71.32C75.8005 72.0667 76.0272 73.0533 76.0272 74.28C76.0272 76.1733 75.3072 77.68 73.8672 78.8C72.4539 79.92 70.5339 80.48 68.1072 80.48ZM87.5247 80V51.76H91.9247L93.8047 57.4V80H87.5247ZM107.005 80L90.3647 58.68L91.9247 51.76L108.565 73.08L107.005 80ZM107.005 80L105.325 74.36V51.76H111.605V80H107.005ZM118.976 80V58.88C118.976 57.3067 119.323 55.8933 120.016 54.64C120.736 53.36 121.736 52.36 123.016 51.64C124.296 50.8933 125.816 50.52 127.576 50.52C128.909 50.52 130.069 50.7467 131.056 51.2C132.069 51.6267 132.949 52.2267 133.696 53L129.856 56.84C129.589 56.5733 129.283 56.3733 128.936 56.24C128.616 56.08 128.229 56 127.776 56C126.949 56 126.296 56.24 125.816 56.72C125.336 57.2 125.096 57.8533 125.096 58.68V80H118.976ZM114.696 65.76V60.56H130.696V65.76H114.696ZM135.545 80V52.52H141.665V80H135.545ZM131.145 65.76V60.56H146.065V65.76H131.145ZM155.451 80.48C154.304 80.48 153.171 80.3333 152.051 80.04C150.958 79.7467 149.931 79.3333 148.971 78.8C148.038 78.24 147.238 77.6 146.571 76.88L150.051 73.36C150.691 74.0533 151.451 74.6 152.331 75C153.211 75.3733 154.171 75.56 155.211 75.56C155.931 75.56 156.478 75.4533 156.851 75.24C157.251 75.0267 157.451 74.7333 157.451 74.36C157.451 73.88 157.211 73.52 156.731 73.28C156.278 73.0133 155.691 72.7867 154.971 72.6C154.251 72.3867 153.491 72.16 152.691 71.92C151.891 71.68 151.131 71.3467 150.411 70.92C149.691 70.4933 149.104 69.9067 148.651 69.16C148.198 68.3867 147.971 67.4133 147.971 66.24C147.971 64.9867 148.291 63.9067 148.931 63C149.571 62.0667 150.478 61.3333 151.651 60.8C152.824 60.2667 154.198 60 155.771 60C157.424 60 158.944 60.2933 160.331 60.88C161.744 61.44 162.891 62.28 163.771 63.4L160.291 66.92C159.678 66.2 158.984 65.6933 158.211 65.4C157.464 65.1067 156.731 64.96 156.011 64.96C155.318 64.96 154.798 65.0667 154.451 65.28C154.104 65.4667 153.931 65.7467 153.931 66.12C153.931 66.52 154.158 66.84 154.611 67.08C155.064 67.32 155.651 67.5333 156.371 67.72C157.091 67.9067 157.851 68.1333 158.651 68.4C159.451 68.6667 160.211 69.0267 160.931 69.48C161.651 69.9333 162.238 70.5467 162.691 71.32C163.144 72.0667 163.371 73.0533 163.371 74.28C163.371 76.1733 162.651 77.68 161.211 78.8C159.798 79.92 157.878 80.48 155.451 80.48ZM177.948 80.44C176.908 80.44 176.042 80.08 175.348 79.36C174.655 78.64 174.308 77.7733 174.308 76.76C174.308 75.6933 174.655 74.8133 175.348 74.12C176.042 73.4 176.908 73.04 177.948 73.04C179.015 73.04 179.882 73.4 180.548 74.12C181.242 74.8133 181.588 75.6933 181.588 76.76C181.588 77.7733 181.242 78.64 180.548 79.36C179.882 80.08 179.015 80.44 177.948 80.44ZM177.948 68.6C176.908 68.6 176.042 68.24 175.348 67.52C174.655 66.8 174.308 65.9333 174.308 64.92C174.308 63.8533 174.655 62.9733 175.348 62.28C176.042 61.56 176.908 61.2 177.948 61.2C179.015 61.2 179.882 61.56 180.548 62.28C181.242 62.9733 181.588 63.8533 181.588 64.92C181.588 65.9333 181.242 66.8 180.548 67.52C179.882 68.24 179.015 68.6 177.948 68.6ZM209.104 80.44C207.158 80.44 205.371 80.1067 203.744 79.44C202.118 78.7467 200.744 77.76 199.624 76.48L203.664 72.44C204.171 73.1867 204.904 73.8 205.864 74.28C206.851 74.7333 207.891 74.96 208.984 74.96C209.971 74.96 210.824 74.7867 211.544 74.44C212.264 74.0933 212.824 73.6 213.224 72.96C213.651 72.32 213.864 71.56 213.864 70.68C213.864 69.8 213.651 69.0533 213.224 68.44C212.824 67.8 212.224 67.3067 211.424 66.96C210.651 66.6133 209.718 66.44 208.624 66.44C208.118 66.44 207.584 66.48 207.024 66.56C206.491 66.6133 206.038 66.7067 205.664 66.84L208.424 63.36C209.171 63.1467 209.878 62.9733 210.544 62.84C211.238 62.68 211.878 62.6 212.464 62.6C213.904 62.6 215.198 62.9467 216.344 63.64C217.491 64.3067 218.398 65.2667 219.064 66.52C219.758 67.7467 220.104 69.2133 220.104 70.92C220.104 72.7867 219.638 74.44 218.704 75.88C217.798 77.32 216.518 78.44 214.864 79.24C213.238 80.04 211.318 80.44 209.104 80.44ZM205.664 66.84V63.36L212.544 55.28L219.584 55.24L212.424 63.4L205.664 66.84ZM201.384 57.08V51.76H219.584V55.24L214.664 57.08H201.384ZM234.688 80.44C232.421 80.44 230.368 79.8267 228.528 78.6C226.688 77.3733 225.235 75.6667 224.168 73.48C223.128 71.2667 222.608 68.72 222.608 65.84C222.608 62.9333 223.128 60.4 224.168 58.24C225.208 56.0533 226.635 54.36 228.448 53.16C230.261 51.9333 232.315 51.32 234.608 51.32C236.928 51.32 238.995 51.9333 240.808 53.16C242.621 54.36 244.048 56.0533 245.088 58.24C246.155 60.4267 246.688 62.9733 246.688 65.88C246.688 68.7867 246.155 71.3333 245.088 73.52C244.048 75.7067 242.621 77.4133 240.808 78.64C239.021 79.84 236.981 80.44 234.688 80.44ZM234.648 74.88C235.821 74.88 236.835 74.5467 237.688 73.88C238.541 73.1867 239.195 72.1733 239.648 70.84C240.128 69.48 240.368 67.8267 240.368 65.88C240.368 63.9067 240.128 62.2533 239.648 60.92C239.195 59.5867 238.541 58.5867 237.688 57.92C236.835 57.2267 235.808 56.88 234.608 56.88C233.461 56.88 232.448 57.2133 231.568 57.88C230.715 58.5467 230.061 59.5467 229.608 60.88C229.155 62.2133 228.928 63.8667 228.928 65.84C228.928 67.8133 229.155 69.4667 229.608 70.8C230.061 72.1333 230.715 73.1467 231.568 73.84C232.448 74.5333 233.475 74.88 234.648 74.88ZM259.569 80.44C257.382 80.44 255.475 80.0667 253.849 79.32C252.222 78.5467 250.742 77.3867 249.409 75.84L253.369 71.8C254.249 72.8667 255.222 73.7067 256.289 74.32C257.355 74.9067 258.582 75.2 259.969 75.2C261.275 75.2 262.289 74.96 263.009 74.48C263.729 73.9733 264.089 73.2667 264.089 72.36C264.089 71.5867 263.849 70.96 263.369 70.48C262.915 70 262.302 69.5867 261.529 69.24C260.755 68.8933 259.902 68.56 258.969 68.24C258.035 67.92 257.102 67.56 256.169 67.16C255.262 66.7333 254.422 66.2133 253.649 65.6C252.875 64.96 252.249 64.1733 251.769 63.24C251.289 62.28 251.049 61.08 251.049 59.64C251.049 57.9067 251.462 56.4133 252.289 55.16C253.142 53.9067 254.302 52.96 255.769 52.32C257.235 51.6533 258.915 51.32 260.809 51.32C262.649 51.32 264.369 51.6667 265.969 52.36C267.569 53.0533 268.875 54 269.889 55.2L265.929 59.24C265.102 58.36 264.262 57.6933 263.409 57.24C262.582 56.76 261.675 56.52 260.689 56.52C259.542 56.52 258.649 56.7333 258.009 57.16C257.369 57.5867 257.049 58.2133 257.049 59.04C257.049 59.76 257.289 60.3467 257.769 60.8C258.249 61.2267 258.875 61.6 259.649 61.92C260.449 62.24 261.302 62.56 262.209 62.88C263.142 63.2 264.075 63.5733 265.009 64C265.942 64.4267 266.795 64.9733 267.569 65.64C268.369 66.28 269.009 67.1067 269.489 68.12C269.969 69.1067 270.209 70.3333 270.209 71.8C270.209 74.4933 269.262 76.6133 267.369 78.16C265.502 79.68 262.902 80.44 259.569 80.44ZM258.249 77.32H262.649V84.04H258.249V77.32ZM262.649 54.2H258.249V47.72H262.649V54.2ZM362.099 80V51.76H368.339V80H362.099ZM356.659 57.08V51.76H367.939V57.08H356.659ZM382.217 80.44C380.19 80.44 378.417 80.08 376.897 79.36C375.403 78.64 374.23 77.6533 373.377 76.4C372.55 75.1467 372.137 73.72 372.137 72.12C372.137 70.7867 372.39 69.5867 372.897 68.52C373.43 67.4533 374.163 66.56 375.097 65.84C376.057 65.12 377.163 64.6267 378.417 64.36L378.297 65.64C377.23 65.4 376.323 64.96 375.577 64.32C374.83 63.6533 374.257 62.8533 373.857 61.92C373.457 60.9867 373.257 60.0133 373.257 59C373.257 57.5067 373.63 56.1867 374.377 55.04C375.15 53.8667 376.217 52.9467 377.577 52.28C378.937 51.6133 380.483 51.28 382.217 51.28C383.977 51.28 385.523 51.6133 386.857 52.28C388.217 52.9467 389.27 53.8667 390.017 55.04C390.79 56.1867 391.177 57.5067 391.177 59C391.177 60.0133 390.977 60.9867 390.577 61.92C390.203 62.8533 389.643 63.6533 388.897 64.32C388.15 64.96 387.243 65.4 386.177 65.64L386.017 64.36C387.297 64.6267 388.403 65.12 389.337 65.84C390.297 66.56 391.03 67.4533 391.537 68.52C392.043 69.5867 392.297 70.7867 392.297 72.12C392.297 73.72 391.883 75.1467 391.057 76.4C390.23 77.6533 389.057 78.64 387.537 79.36C386.043 80.08 384.27 80.44 382.217 80.44ZM382.217 75.08C383.017 75.08 383.723 74.92 384.337 74.6C384.95 74.2533 385.43 73.7867 385.777 73.2C386.15 72.6133 386.337 71.96 386.337 71.24C386.337 70.4933 386.15 69.84 385.777 69.28C385.43 68.6933 384.95 68.24 384.337 67.92C383.723 67.5733 383.017 67.4 382.217 67.4C381.417 67.4 380.71 67.5733 380.097 67.92C379.483 68.24 379.003 68.6933 378.657 69.28C378.31 69.84 378.137 70.4933 378.137 71.24C378.137 71.96 378.31 72.6133 378.657 73.2C379.003 73.7867 379.483 74.2533 380.097 74.6C380.71 74.92 381.417 75.08 382.217 75.08ZM382.217 62.84C383.15 62.84 383.91 62.5467 384.497 61.96C385.11 61.3467 385.417 60.5867 385.417 59.68C385.417 58.7467 385.11 57.9867 384.497 57.4C383.91 56.7867 383.15 56.48 382.217 56.48C381.31 56.48 380.55 56.7733 379.937 57.36C379.323 57.9467 379.017 58.7067 379.017 59.64C379.017 60.5467 379.323 61.3067 379.937 61.92C380.55 62.5333 381.31 62.84 382.217 62.84ZM405.038 80.44C402.851 80.44 400.944 80.0667 399.317 79.32C397.691 78.5467 396.211 77.3867 394.878 75.84L398.838 71.8C399.718 72.8667 400.691 73.7067 401.758 74.32C402.824 74.9067 404.051 75.2 405.438 75.2C406.744 75.2 407.758 74.96 408.478 74.48C409.198 73.9733 409.558 73.2667 409.558 72.36C409.558 71.5867 409.318 70.96 408.838 70.48C408.384 70 407.771 69.5867 406.998 69.24C406.224 68.8933 405.371 68.56 404.438 68.24C403.504 67.92 402.571 67.56 401.638 67.16C400.731 66.7333 399.891 66.2133 399.118 65.6C398.344 64.96 397.718 64.1733 397.238 63.24C396.758 62.28 396.518 61.08 396.518 59.64C396.518 57.9067 396.931 56.4133 397.758 55.16C398.611 53.9067 399.771 52.96 401.238 52.32C402.704 51.6533 404.384 51.32 406.278 51.32C408.118 51.32 409.838 51.6667 411.438 52.36C413.038 53.0533 414.344 54 415.358 55.2L411.398 59.24C410.571 58.36 409.731 57.6933 408.878 57.24C408.051 56.76 407.144 56.52 406.158 56.52C405.011 56.52 404.118 56.7333 403.478 57.16C402.838 57.5867 402.518 58.2133 402.518 59.04C402.518 59.76 402.758 60.3467 403.238 60.8C403.718 61.2267 404.344 61.6 405.118 61.92C405.918 62.24 406.771 62.56 407.678 62.88C408.611 63.2 409.544 63.5733 410.478 64C411.411 64.4267 412.264 64.9733 413.038 65.64C413.838 66.28 414.478 67.1067 414.958 68.12C415.438 69.1067 415.678 70.3333 415.678 71.8C415.678 74.4933 414.731 76.6133 412.838 78.16C410.971 79.68 408.371 80.44 405.038 80.44ZM403.717 77.32H408.118V84.04H403.717V77.32ZM408.118 54.2H403.717V47.72H408.118V54.2Z" fill="white"/>
</svg>
